<?xml version="1.0" encoding="utf-8"?>
<svg width="800px" height="800px" viewBox="0 0 24 24" fill="none" xmlns="http://www.w3.org/2000/svg">
  <path d="M 12 15 L 9 12 M 12 15 C 13.397 14.469 14.737 13.799 16 13 M 12 15 L 12 20 C 12 20 15.03 19.45 16 18 C 17.08 16.38 16 13 16 13 M 9 12 C 9.532 10.619 10.202 9.296 11 8.05 C 12.165 6.187 13.788 4.653 15.713 3.594 C 17.638 2.535 19.803 1.986 22 2 C 22 4.72 21.22 9.5 16 13 M 9 12 L 4 12 C 4 12 4.55 8.97 6 8 C 7.62 6.92 11 8 11 8" stroke="#000000" stroke-width="2" stroke-linecap="round" stroke-linejoin="round" style="fill-rule: nonzero;"/>
  <text style="fill: rgb(51, 51, 51); font-family: Arial, sans-serif; font-size: 0.833074px; font-weight: 700; line-height: 2.22153px; white-space: pre;" transform="matrix(0.914549, -0.94437, 0.994957, 1.087685, -16.762722, 5.790627)"><tspan x="2.161" y="16.292">01110011 01110000</tspan><tspan x="2.161" dy="1em">​</tspan><tspan>01110010 01101111</tspan><tspan x="2.161" dy="1em">​</tspan><tspan>01110011 01110100</tspan><tspan x="2.161" dy="1em">​</tspan></text>
</svg>